<svg width="50" height="50" viewBox="0 0 50 50" fill="none" xmlns="http://www.w3.org/2000/svg">
<path fill-rule="evenodd" clip-rule="evenodd" d="M50 34.43C50 35.0244 50 35.6188 49.9965 36.2141C49.9939 36.7146 49.9878 37.2151 49.9739 37.7156C49.9442 38.8053 49.8789 39.9063 49.6828 40.984C49.4841 42.0789 49.16 43.098 48.6467 44.093C48.1439 45.0699 47.4868 45.9641 46.7026 46.7394C45.9183 47.5147 45.0129 48.1651 44.0247 48.6622C43.0191 49.1687 41.9891 49.49 40.8815 49.6864C39.7905 49.8803 38.6777 49.9449 37.5745 49.9742C35.4535 50 34.8522 50 34.251 50H22.6567H15.7499C13.4389 49.9931 12.9326 49.9879 12.4263 49.9742C11.3231 49.9449 10.2103 49.8803 9.11933 49.6864C8.01177 49.49 6.98176 49.1687 5.97615 48.6622C4.98709 48.1651 4.08257 47.5147 3.2983 46.7394C2.51403 45.9641 1.85698 45.0699 1.3533 44.093C0.840913 43.098 0.516748 42.0789 0.317194 40.984C0.121126 39.9063 0.0566418 38.8053 0.0270138 37.7156C0.0130712 37.2151 0.0069713 36.7146 0.00435706 36.2141C0 35.6188 0 35.0244 0 34.43V27.6021V22.3979V15.57C0 14.9756 0 14.3803 0.00435706 13.7868C0.0069713 13.2854 0.0130712 12.7849 0.0270138 12.2844C0.0566418 11.1938 0.121126 10.0937 0.317194 9.01516C0.516748 7.92025 0.840913 6.90201 1.3533 5.90702C1.85698 4.92927 2.51403 4.03507 3.2983 3.26062C4.08257 2.48445 4.98709 1.83491 5.97615 1.33785C6.98176 0.831308 8.01177 0.509984 9.11933 0.313571C10.2103 0.119743 11.3231 0.0551334 12.4263 0.0258438C14.5474 0 15.1486 0 15.7499 0H22.6567H33.7577L27.3433 0.00258438L34.251 0C36.5611 0.00689167 37.0674 0.0120604 37.5745 0.0258438C38.6777 0.0551334 39.7905 0.119743 40.8815 0.313571C41.9891 0.509984 43.0191 0.831308 44.0247 1.33785C45.0129 1.83491 45.9183 2.48445 46.7026 3.26062C47.4868 4.03507 48.1439 4.92927 48.6467 5.90702C49.16 6.90201 49.4841 7.92025 49.6828 9.01516C49.8789 10.0937 49.9442 11.1938 49.9739 12.2844C49.9878 12.7849 49.9939 13.2854 49.9965 13.7868C50 14.3803 50 14.9756 50 15.57V22.3979V27.6021V34.43Z" fill="#1890D6"/>
<path d="M20.0406 24.7649C18.7651 23.461 18.0625 21.7466 18.0625 19.9375C18.0625 16.1121 21.1746 13 25 13C28.8254 13 31.9375 16.1121 31.9375 19.9375C31.9375 23.2026 29.6697 25.9479 26.6267 26.6818C26.3033 27.2452 25.6962 27.625 25 27.625C23.9645 27.625 23.125 26.7855 23.125 25.75C23.125 24.7145 23.9645 23.875 25 23.875C25.6661 23.875 26.2506 24.2227 26.5833 24.7462C28.6017 24.0799 30.0625 22.1763 30.0625 19.9375C30.0625 17.1461 27.7914 14.875 25 14.875C22.2086 14.875 19.9375 17.1461 19.9375 19.9375C19.9375 21.2535 20.4502 22.5023 21.3809 23.4539C21.7429 23.8239 21.7365 24.4174 21.3665 24.7795C20.9962 25.1415 20.4028 25.1351 20.0406 24.7649ZM35.0963 28.2349C34.3008 27.536 33.3362 26.9321 32.229 26.4401C31.7559 26.2299 31.202 26.4431 30.9916 26.9162C30.7814 27.3893 30.9945 27.9434 31.4677 28.1536C32.4013 28.5685 33.2059 29.0697 33.8586 29.6434C34.6634 30.3505 35.125 31.3745 35.125 32.4531V34.1875C35.125 34.7044 34.7044 35.125 34.1875 35.125H15.8125C15.2956 35.125 14.875 34.7044 14.875 34.1875V32.4531C14.875 31.3745 15.3366 30.3505 16.1414 29.6434C16.9271 28.9529 18.3463 28.0046 20.6452 27.4075C21.1464 27.2773 21.447 26.7653 21.3168 26.2643C21.1866 25.7632 20.6749 25.4625 20.1737 25.5927C17.5185 26.2825 15.8423 27.4102 14.9037 28.2349C13.6938 29.2979 13 30.8354 13 32.4531V34.1875C13 35.7384 14.2616 37 15.8125 37H34.1875C35.7384 37 37 35.7384 37 34.1875V32.4531C37 30.8354 36.3062 29.2979 35.0963 28.2349Z" fill="white"/>
</svg>
